<?xml version="1.0" standalone="no"?>
<!DOCTYPE svg PUBLIC "-//W3C//DTD SVG 20010904//EN"
 "http://www.w3.org/TR/2001/REC-SVG-20010904/DTD/svg10.dtd">
<svg version="1.0" xmlns="http://www.w3.org/2000/svg"
 width="260.000000pt" height="260.000000pt" viewBox="0 0 260.000000 260.000000"
 preserveAspectRatio="xMidYMid meet">
<metadata>
Created by potrace 1.14, written by Peter Selinger 2001-2017
</metadata>
<g transform="translate(0.000000,260.000000) scale(0.100000,-0.100000)"
fill="#000000" stroke="none">
<path d="M1182 2548 c-443 -51 -807 -366 -919 -796 -19 -74 -26 -127 -28 -227
-5 -240 46 -418 180 -620 50 -76 176 -205 773 -794 l112 -111 327 322 c536
531 546 542 622 688 212 405 135 905 -188 1228 -227 227 -566 347 -879 310z
m226 -632 c120 -33 235 -125 287 -232 121 -247 -23 -545 -295 -608 -242 -57
-481 95 -528 334 -8 42 -8 142 0 186 17 89 107 213 197 268 95 60 233 81 339
52z"/>
</g>
</svg>
